<svg xmlns="http://www.w3.org/2000/svg" viewBox="0 0 600 100" fill="none">
  <defs>
    <!-- Gradient for T -->
    <linearGradient id="gradientT" x1="0%" y1="0%" x2="100%" y2="100%">
      <stop offset="0%" style="stop-color:#00D4FF;stop-opacity:1" />
      <stop offset="50%" style="stop-color:#7C3AED;stop-opacity:1" />
      <stop offset="100%" style="stop-color:#1E3A8A;stop-opacity:1" />
    </linearGradient>
    
    <!-- Gradient for R -->
    <linearGradient id="gradientR" x1="0%" y1="0%" x2="100%" y2="100%">
      <stop offset="0%" style="stop-color:#D946EF;stop-opacity:1" />
      <stop offset="100%" style="stop-color:#7C3AED;stop-opacity:1" />
    </linearGradient>
    
    <!-- Gradient for lightning bolt accent -->
    <linearGradient id="gradientBolt" x1="0%" y1="0%" x2="100%" y2="100%">
      <stop offset="0%" style="stop-color:#00D4FF;stop-opacity:1" />
      <stop offset="100%" style="stop-color:#D946EF;stop-opacity:1" />
    </linearGradient>
  </defs>
  
  <!-- TR Icon -->
  <g id="tr-icon">
    <!-- T letter with curved design -->
    <path d="M 20 20 L 20 25 C 20 30 25 35 30 40 L 30 75 C 30 78 32 80 35 80 L 45 80 C 48 80 50 78 50 75 L 50 40 C 50 35 48 30 45 25 C 42 20 38 18 35 18 L 30 18 C 25 18 22 20 20 22 Z" fill="url(#gradientT)"/>
    <path d="M 18 15 C 18 12 20 10 23 10 L 52 10 C 55 10 57 12 57 15 L 57 22 C 57 24 56 25 54 25 L 23 25 C 20 25 18 23 18 20 Z" fill="url(#gradientT)"/>
    
    <!-- Lightning bolt accent on T -->
    <path d="M 35 12 L 33 20 L 38 20 L 36 28 Z" fill="url(#gradientBolt)" opacity="0.8"/>
    
    <!-- R letter with curved design -->
    <path d="M 65 20 C 65 15 68 10 73 10 L 78 10 C 81 10 83 12 83 15 L 83 75 C 83 78 81 80 78 80 L 73 80 C 70 80 68 78 68 75 L 68 55 L 75 55 C 78 55 80 53 80 50 L 80 35 C 80 30 85 25 90 25 L 95 25 C 100 25 102 30 98 35 L 90 50 C 88 53 90 55 93 55 L 100 80 C 101 82 100 85 97 85 L 90 85 C 88 85 86 84 85 82 L 78 60 L 68 60 Z" fill="url(#gradientR)"/>
    <path d="M 68 20 L 68 15 C 68 12 70 10 73 10 L 92 10 C 100 10 107 17 107 25 L 107 35 C 107 43 100 50 92 50 L 73 50 C 70 50 68 48 68 45 L 68 40 L 90 40 C 93 40 95 38 95 35 L 95 25 C 95 22 93 20 90 20 Z" fill="url(#gradientR)"/>
  </g>
  
  <!-- TONRIS Text -->
  <g id="tonris-text">
    <text x="130" y="62" font-family="system-ui, -apple-system, BlinkMacSystemFont, 'Segoe UI', sans-serif" font-size="48" font-weight="700" fill="#1E3A8A" letter-spacing="-1">
      TONRIS
    </text>
  </g>
  
  <!-- AI Assistant Subtitle -->
  <g id="subtitle">
    <text x="132" y="85" font-family="system-ui, -apple-system, BlinkMacSystemFont, 'Segoe UI', sans-serif" font-size="20" font-weight="400" fill="#64748B" letter-spacing="0.5">
      AI Assistant
    </text>
  </g>
</svg>
